<svg xmlns="http://www.w3.org/2000/svg" xmlns:xlink="http://www.w3.org/1999/xlink" style="margin:auto;background:#121318;display:block;z-index:1;position:relative" width="1536" height="426" preserveAspectRatio="xMidYMid" viewBox="0 0 1536 426">
	<g transform="translate(768,213) scale(1,1) translate(-768,-213)">
		<path d="M-100 250.32C-71.35 255.96 -71.93 257.09 -44 257.09S-14.97 254.6 12 254.6S40.67 247.99 68 247.99S96.53 247.92 124 247.92S152.17 251.78 180 251.78S208.67 254.32 236 254.32S264.9 248.4 292 248.4S320.5 250.79 348 250.79S376.95 249.9 404 249.9S432.86 249.48 460 249.48S488.5 249.13 516 249.13S544.9 250.52 572 250.52S600.72 251.13 628 251.13S656.61 253.48 684 253.48S712.92 254.06 740 254.06S768.1 250.67 796 250.67S824.96 251.55 852 251.55S880.99 254.16 908 254.16S936.74 257.43 964 257.43S992.99 257.59 1020 257.59S1048.41 252.24 1076 252.24S1104.18 249.52 1132 249.52S1160.98 250.65 1188 250.65S1216.73 255.56 1244 255.56S1272.93 254.84 1300 254.84S1328.62 256.85 1356 256.85S1384.9 257.22 1412 257.22S1440.1 249.14 1468 249.14S1496.62 257.65 1524 257.65S1552 255.26 1580 255.26S1608.42 256.06 1636 256.06S1664.76 252.09 1692 252.09L1636 426 L-100 426 Z" fill="#00ffef" stroke-width="0">
			<animate attributeName="d" dur="25s" repeatCount="indefinite" values="M-100 250.32C-71.35 255.96 -71.93 257.09 -44 257.09S-14.97 254.6 12 254.6S40.67 247.99 68 247.99S96.53 247.92 124 247.92S152.17 251.78 180 251.78S208.67 254.32 236 254.32S264.9 248.4 292 248.4S320.5 250.79 348 250.79S376.95 249.9 404 249.9S432.86 249.48 460 249.48S488.5 249.13 516 249.13S544.9 250.52 572 250.52S600.72 251.13 628 251.13S656.61 253.48 684 253.48S712.92 254.06 740 254.06S768.1 250.67 796 250.67S824.96 251.55 852 251.55S880.99 254.16 908 254.16S936.74 257.43 964 257.43S992.99 257.59 1020 257.59S1048.41 252.24 1076 252.24S1104.18 249.52 1132 249.52S1160.98 250.65 1188 250.65S1216.73 255.56 1244 255.56S1272.93 254.84 1300 254.84S1328.62 256.85 1356 256.85S1384.9 257.22 1412 257.22S1440.1 249.14 1468 249.14S1496.62 257.65 1524 257.65S1552 255.26 1580 255.26S1608.42 256.06 1636 256.06S1664.76 252.09 1692 252.09L1636 426 L-100 426 Z;M-100 253.19C-71.03 250.05 -71.23 255.05 -44 255.05S-15.01 250.22 12 250.22S40.95 247.68 68 247.68S96.36 252.49 124 252.49S152.88 251.79 180 251.79S208.8 255.04 236 255.04S264.1 255.37 292 255.37S320.09 251.66 348 251.66S376.86 250.54 404 250.54S433.03 257.36 460 257.36S488.85 248.11 516 248.11S544.24 253.85 572 253.85S600.65 248.75 628 248.75S657 255.89 684 255.89S712.08 247.41 740 247.41S768.43 255.43 796 255.43S824.98 249.66 852 249.66S880.26 255.67 908 255.67S936.69 248.2 964 248.2S992.82 257.27 1020 257.27S1048.93 256.19 1076 256.19S1104.47 247.95 1132 247.95S1160.11 254.95 1188 254.95S1216.5 247.75 1244 247.75S1272.75 249.4 1300 249.4S1328.78 249.23 1356 249.23S1384.46 255.83 1412 255.83S1440.9 257.17 1468 257.17S1496.11 251.38 1524 251.38S1553.06 254.6 1580 254.6S1608.33 249.64 1636 249.64S1664.96 251.26 1692 251.26L1636 426 L-100 426 Z;M-100 250.32C-71.35 255.96 -71.93 257.09 -44 257.09S-14.97 254.6 12 254.6S40.67 247.99 68 247.99S96.53 247.92 124 247.92S152.17 251.78 180 251.78S208.67 254.32 236 254.32S264.9 248.4 292 248.4S320.5 250.79 348 250.79S376.95 249.9 404 249.9S432.86 249.48 460 249.48S488.5 249.13 516 249.13S544.9 250.52 572 250.52S600.72 251.13 628 251.13S656.61 253.48 684 253.48S712.92 254.06 740 254.06S768.1 250.67 796 250.67S824.96 251.55 852 251.55S880.99 254.16 908 254.16S936.74 257.43 964 257.43S992.99 257.59 1020 257.59S1048.41 252.24 1076 252.24S1104.18 249.52 1132 249.52S1160.98 250.65 1188 250.65S1216.73 255.56 1244 255.56S1272.93 254.84 1300 254.84S1328.62 256.85 1356 256.85S1384.9 257.22 1412 257.22S1440.1 249.14 1468 249.14S1496.62 257.65 1524 257.65S1552 255.26 1580 255.26S1608.42 256.06 1636 256.06S1664.76 252.09 1692 252.09L1636 426 L-100 426 Z"></animate>
			<animateTransform attributeName="transform" type="translate" dur="25s" begin="0s" repeatCount="indefinite" values="0;10;0" calcMode="spline" keySplines="0.3 0 0.7 1;0.3 0 0.7 1"></animateTransform>
		</path>
		<path d="M-100 262.07C-70.94 265.81 -70.69 269.09 -42.52 269.09S-12.87 258.02 14.97 258.02S44.18 268.58 72.45 268.58S102.07 264.03 129.93 264.03S159.38 267.74 187.42 267.74S216.63 265.23 244.9 265.23S274.01 262.87 302.38 262.87S331.72 267.87 359.87 267.87S388.63 260.34 417.35 260.34S446.7 264.99 474.83 264.99S503.85 262.68 532.32 262.68S561.11 263.69 589.8 263.69S619.58 269.59 647.28 269.59S676.16 262.87 704.77 262.87S734.18 269.9 762.25 269.9S791.84 266.65 819.74 266.65S849.31 262.51 877.22 262.51S906.02 259.84 934.7 259.84S964.41 262.56 992.19 262.56S1021.93 265.83 1049.67 265.83S1079.18 263.94 1107.15 263.94S1136.8 262.85 1164.64 262.85S1194.14 260.75 1222.12 260.75S1251.8 265 1279.6 265S1309.34 266.58 1337.09 266.58S1366.62 259.83 1394.57 259.83S1423.59 265.35 1452.05 265.35S1481.08 259.39 1509.54 259.39S1538.67 264.6 1567.02 264.6S1596.42 261.24 1624.5 261.24S1654.06 266.94 1681.99 266.94L1636 426 L-100 426 Z" fill="#00e4e4" stroke-width="0">
			<animate attributeName="d" dur="22.5s" repeatCount="indefinite" values="M-100 262.07C-70.94 265.81 -70.69 269.09 -42.52 269.09S-12.87 258.02 14.97 258.02S44.18 268.58 72.45 268.58S102.07 264.03 129.93 264.03S159.38 267.74 187.42 267.74S216.63 265.23 244.9 265.23S274.01 262.87 302.38 262.87S331.72 267.87 359.87 267.87S388.63 260.34 417.35 260.34S446.7 264.99 474.83 264.99S503.85 262.68 532.32 262.68S561.11 263.69 589.8 263.69S619.58 269.59 647.28 269.59S676.16 262.87 704.77 262.87S734.18 269.9 762.25 269.9S791.84 266.65 819.74 266.65S849.31 262.51 877.22 262.51S906.02 259.84 934.7 259.84S964.41 262.56 992.19 262.56S1021.93 265.83 1049.67 265.83S1079.18 263.94 1107.15 263.94S1136.8 262.85 1164.64 262.85S1194.14 260.75 1222.12 260.75S1251.8 265 1279.6 265S1309.34 266.58 1337.09 266.58S1366.62 259.83 1394.57 259.83S1423.59 265.35 1452.05 265.35S1481.08 259.39 1509.54 259.39S1538.67 264.6 1567.02 264.6S1596.42 261.24 1624.5 261.24S1654.06 266.94 1681.99 266.94L1636 426 L-100 426 Z;M-100 258.63C-70.91 262.15 -70.21 261.71 -42.52 261.71S-13.23 258.48 14.97 258.48S44.07 260.33 72.45 260.33S102.02 259.48 129.93 259.48S159.08 264.9 187.42 264.9S217.13 266.23 244.9 266.23S274.06 266.4 302.38 266.4S331.58 258.37 359.87 258.37S389.27 270.13 417.35 270.13S446.71 260.44 474.83 260.44S504.51 261.82 532.32 261.82S561.27 264.37 589.8 264.37S618.72 266.78 647.28 266.78S676.84 258.17 704.77 258.17S734.15 264.33 762.25 264.33S791.81 258.49 819.74 258.49S849.46 269.45 877.22 269.45S906.67 262.67 934.7 262.67S964.29 261.36 992.19 261.36S1020.96 260.14 1049.67 260.14S1079.11 261.13 1107.15 261.13S1136.36 263.35 1164.64 263.35S1194.01 266.71 1222.12 266.71S1251.2 265.87 1279.6 265.87S1308.66 267.75 1337.09 267.75S1366.63 267.62 1394.57 267.62S1423.33 269.04 1452.05 269.04S1481.7 260.16 1509.54 260.16S1539.07 264.28 1567.02 264.28S1596.32 262.78 1624.5 262.78S1653.86 259.98 1681.99 259.98L1636 426 L-100 426 Z;M-100 262.07C-70.94 265.81 -70.69 269.09 -42.52 269.09S-12.87 258.02 14.97 258.02S44.18 268.58 72.45 268.58S102.07 264.03 129.93 264.03S159.38 267.74 187.42 267.74S216.63 265.23 244.9 265.23S274.01 262.87 302.38 262.87S331.72 267.87 359.87 267.87S388.63 260.34 417.35 260.34S446.7 264.99 474.83 264.99S503.85 262.68 532.32 262.68S561.11 263.69 589.8 263.69S619.58 269.59 647.28 269.59S676.16 262.87 704.77 262.87S734.18 269.9 762.25 269.9S791.84 266.65 819.74 266.65S849.31 262.51 877.22 262.51S906.02 259.84 934.7 259.84S964.41 262.56 992.19 262.56S1021.93 265.83 1049.67 265.83S1079.18 263.94 1107.15 263.94S1136.8 262.85 1164.64 262.85S1194.14 260.75 1222.12 260.75S1251.8 265 1279.6 265S1309.34 266.58 1337.09 266.58S1366.62 259.83 1394.57 259.83S1423.59 265.35 1452.05 265.35S1481.08 259.39 1509.54 259.39S1538.67 264.6 1567.02 264.6S1596.42 261.24 1624.5 261.24S1654.06 266.94 1681.99 266.94L1636 426 L-100 426 Z"></animate>
			<animateTransform attributeName="transform" type="translate" dur="22.5s" begin="-2.25s" repeatCount="indefinite" values="0;10;0" calcMode="spline" keySplines="0.3 0 0.7 1;0.3 0 0.7 1"></animateTransform>
		</path>
		<path d="M-100 270.14C-69.78 274.4 -70.46 282.22 -40.95 282.22S-11 271.58 18.1 271.58S47.7 275.56 77.14 275.56S107.65 272.13 136.19 272.13S166.58 278.07 195.24 278.07S225.14 278.68 254.29 278.68S284.12 278.29 313.33 278.29S342.95 277.84 372.38 277.84S402.06 274.68 431.43 274.68S461.28 272.56 490.48 272.56S521.06 277.16 549.52 277.16S579.52 274.56 608.57 274.56S638.36 276.23 667.62 276.23S697.7 271.06 726.67 271.06S756.84 277.6 785.71 277.6S816.06 272.03 844.76 272.03S874.98 277.92 903.81 277.92S933.75 272.33 962.86 272.33S992.94 279.52 1021.9 279.52S1051.97 274.74 1080.95 274.74S1111.38 274.43 1140 274.43S1169.99 277.15 1199.05 277.15S1228.59 277.94 1258.1 277.94S1288.4 275.68 1317.14 275.68S1347.37 275.28 1376.19 275.28S1406.75 275.96 1435.24 275.96S1465.26 279.75 1494.29 279.75S1524.09 272.34 1553.33 272.34S1583.22 277.35 1612.38 277.35S1642.15 274.77 1671.43 274.77L1636 426 L-100 426 Z" fill="#00c9d6" stroke-width="0">
			<animate attributeName="d" dur="20s" repeatCount="indefinite" values="M-100 270.14C-69.78 274.4 -70.46 282.22 -40.95 282.22S-11 271.58 18.1 271.58S47.7 275.56 77.14 275.56S107.65 272.13 136.19 272.13S166.58 278.07 195.24 278.07S225.14 278.68 254.29 278.68S284.12 278.29 313.33 278.29S342.95 277.84 372.38 277.84S402.06 274.68 431.43 274.68S461.28 272.56 490.48 272.56S521.06 277.16 549.52 277.16S579.52 274.56 608.57 274.56S638.36 276.23 667.62 276.23S697.7 271.06 726.67 271.06S756.84 277.6 785.71 277.6S816.06 272.03 844.76 272.03S874.98 277.92 903.81 277.92S933.75 272.33 962.86 272.33S992.94 279.52 1021.9 279.52S1051.97 274.74 1080.95 274.74S1111.38 274.43 1140 274.43S1169.99 277.15 1199.05 277.15S1228.59 277.94 1258.1 277.94S1288.4 275.68 1317.14 275.68S1347.37 275.28 1376.19 275.28S1406.75 275.96 1435.24 275.96S1465.26 279.75 1494.29 279.75S1524.09 272.34 1553.33 272.34S1583.22 277.35 1612.38 277.35S1642.15 274.77 1671.43 274.77L1636 426 L-100 426 Z;M-100 274.07C-70.01 268.64 -70.41 268.64 -40.95 268.64S-10.71 276.2 18.1 276.2S48.33 279.26 77.14 279.26S106.92 273.05 136.19 273.05S166.24 279.4 195.24 279.4S225.63 277.69 254.29 277.69S283.88 276.48 313.33 276.48S343.11 270.65 372.38 270.65S402.1 278.97 431.43 278.97S461.37 277.74 490.48 277.74S520.38 281.64 549.52 281.64S580.11 273.24 608.57 273.24S638.17 274.09 667.62 274.09S697.82 268.7 726.67 268.7S757.12 279.3 785.71 279.3S815.47 269.76 844.76 269.76S874.99 274.67 903.81 274.67S934.35 273.66 962.86 273.66S993.41 275.59 1021.9 275.59S1051.45 277.72 1080.95 277.72S1111.27 275.65 1140 275.65S1170.31 270.99 1199.05 270.99S1228.8 279.94 1258.1 279.94S1288.57 269.04 1317.14 269.04S1347.64 275.71 1376.19 275.71S1405.93 272.22 1435.24 272.22S1465.3 280.61 1494.29 280.61S1524.75 273.48 1553.33 273.48S1583.57 282.97 1612.38 282.97S1642.91 282.5 1671.43 282.5L1636 426 L-100 426 Z;M-100 270.14C-69.78 274.4 -70.46 282.22 -40.95 282.22S-11 271.58 18.1 271.58S47.7 275.56 77.14 275.56S107.65 272.13 136.19 272.13S166.58 278.07 195.24 278.07S225.14 278.68 254.29 278.68S284.12 278.29 313.33 278.29S342.95 277.84 372.38 277.84S402.06 274.68 431.43 274.68S461.28 272.56 490.48 272.56S521.06 277.16 549.52 277.16S579.52 274.56 608.57 274.56S638.36 276.23 667.62 276.23S697.7 271.06 726.67 271.06S756.84 277.6 785.71 277.6S816.06 272.03 844.76 272.03S874.98 277.92 903.81 277.92S933.75 272.33 962.86 272.33S992.94 279.52 1021.9 279.52S1051.97 274.74 1080.95 274.74S1111.38 274.43 1140 274.43S1169.99 277.15 1199.05 277.15S1228.59 277.94 1258.1 277.94S1288.4 275.68 1317.14 275.68S1347.37 275.28 1376.19 275.28S1406.75 275.96 1435.24 275.96S1465.26 279.75 1494.29 279.75S1524.09 272.34 1553.33 272.34S1583.22 277.35 1612.38 277.35S1642.15 274.77 1671.43 274.77L1636 426 L-100 426 Z"></animate>
			<animateTransform attributeName="transform" type="translate" dur="20s" begin="-4s" repeatCount="indefinite" values="0;10;0" calcMode="spline" keySplines="0.3 0 0.7 1;0.3 0 0.7 1"></animateTransform>
		</path>
		<path d="M-100 286.07C-68.74 289.5 -69.28 294.52 -39.3 294.52S-8.61 288.21 21.4 288.21S51.95 285.15 82.1 285.15S113.34 282.06 142.8 282.06S174.06 293.68 203.5 293.68S234.01 285.77 264.2 285.77S295.41 286.51 324.9 286.51S355.49 281.33 385.59 281.33S416.67 289.35 446.29 289.35S477.51 280.19 506.99 280.19S537.85 295.33 567.69 295.33S598.58 284.24 628.39 284.24S659.07 293.63 689.09 293.63S720.41 286.07 749.79 286.07S780.14 294.96 810.49 294.96S841.37 289.52 871.19 289.52S902.56 292.92 931.89 292.92S962.61 286.73 992.59 286.73S1023.39 292.93 1053.29 292.93S1084.37 293.37 1113.99 293.37S1145.12 291.77 1174.69 291.77S1205.97 281.73 1235.38 281.73S1266.48 281.81 1296.08 281.81S1327.48 287.21 1356.78 287.21S1387.8 290.85 1417.48 290.85S1448.22 287.41 1478.18 287.41S1508.57 281.71 1538.88 281.71S1569.58 282.02 1599.58 282.02S1630.55 282.53 1660.28 282.53L1636 426 L-100 426 Z" fill="#0aafc5" stroke-width="0">
			<animate attributeName="d" dur="17.5s" repeatCount="indefinite" values="M-100 286.07C-68.74 289.5 -69.28 294.52 -39.3 294.52S-8.61 288.21 21.4 288.21S51.95 285.15 82.1 285.15S113.34 282.06 142.8 282.06S174.06 293.68 203.5 293.68S234.01 285.77 264.2 285.77S295.41 286.51 324.9 286.51S355.49 281.33 385.59 281.33S416.67 289.35 446.29 289.35S477.51 280.19 506.99 280.19S537.85 295.33 567.69 295.33S598.58 284.24 628.39 284.24S659.07 293.63 689.09 293.63S720.41 286.07 749.79 286.07S780.14 294.96 810.49 294.96S841.37 289.52 871.19 289.52S902.56 292.92 931.89 292.92S962.61 286.73 992.59 286.73S1023.39 292.93 1053.29 292.93S1084.37 293.37 1113.99 293.37S1145.12 291.77 1174.69 291.77S1205.97 281.73 1235.38 281.73S1266.48 281.81 1296.08 281.81S1327.48 287.21 1356.78 287.21S1387.8 290.85 1417.48 290.85S1448.22 287.41 1478.18 287.41S1508.57 281.71 1538.88 281.71S1569.58 282.02 1599.58 282.02S1630.55 282.53 1660.28 282.53L1636 426 L-100 426 Z;M-100 286.49C-68.9 288.6 -68.88 285.78 -39.3 285.78S-8.28 281.36 21.4 281.36S52.24 286.67 82.1 286.67S112.64 279.43 142.8 279.43S174.17 292.9 203.5 292.9S234.44 281.73 264.2 281.73S295.32 291.73 324.9 291.73S355.67 281.33 385.59 281.33S416.64 290.11 446.29 290.11S477.36 280.09 506.99 280.09S537.8 292.61 567.69 292.61S598.33 279.47 628.39 279.47S659.69 294.5 689.09 294.5S719.69 286.34 749.79 286.34S780.39 293.63 810.49 293.63S840.86 281.47 871.19 281.47S901.78 287.16 931.89 287.16S962.47 287.44 992.59 287.44S1023.22 291.89 1053.29 291.89S1083.82 280.26 1113.99 280.26S1144.34 293.2 1174.69 293.2S1205.4 284.09 1235.38 284.09S1265.92 291.5 1296.08 291.5S1326.72 282.95 1356.78 282.95S1387.68 286.57 1417.48 286.57S1448.31 289.85 1478.18 289.85S1508.8 287.29 1538.88 287.29S1569.27 294.75 1599.58 294.75S1630.32 293.79 1660.28 293.79L1636 426 L-100 426 Z;M-100 286.07C-68.74 289.5 -69.28 294.52 -39.3 294.52S-8.61 288.21 21.4 288.21S51.95 285.15 82.1 285.15S113.34 282.06 142.8 282.06S174.06 293.68 203.5 293.68S234.01 285.77 264.2 285.77S295.41 286.51 324.9 286.51S355.49 281.33 385.59 281.33S416.67 289.35 446.29 289.35S477.51 280.19 506.99 280.19S537.85 295.33 567.69 295.33S598.58 284.24 628.39 284.24S659.07 293.63 689.09 293.63S720.41 286.07 749.79 286.07S780.14 294.96 810.49 294.96S841.37 289.52 871.19 289.52S902.56 292.92 931.89 292.92S962.61 286.73 992.59 286.73S1023.39 292.93 1053.29 292.93S1084.37 293.37 1113.99 293.37S1145.12 291.77 1174.69 291.77S1205.97 281.73 1235.38 281.73S1266.48 281.81 1296.08 281.81S1327.48 287.21 1356.78 287.21S1387.8 290.85 1417.48 290.85S1448.22 287.41 1478.18 287.41S1508.57 281.71 1538.88 281.71S1569.58 282.02 1599.58 282.02S1630.55 282.53 1660.28 282.53L1636 426 L-100 426 Z"></animate>
			<animateTransform attributeName="transform" type="translate" dur="17.5s" begin="-5.25s" repeatCount="indefinite" values="0;10;0" calcMode="spline" keySplines="0.3 0 0.7 1;0.3 0 0.7 1"></animateTransform>
		</path>
		<path d="M-100 292.91C-68.37 292.27 -68.53 301.88 -37.55 301.88S-5.56 297.02 24.89 297.02S56.58 305.66 87.34 305.66S119.09 290.23 149.78 290.23S181.04 305.22 212.23 305.22S243.86 295.96 274.68 295.96S306.82 300.56 337.12 300.56S368.96 297.05 399.57 297.05S431.47 307.42 462.01 307.42S493.94 297.25 524.46 297.25S555.91 299.11 586.91 299.11S618.72 299.24 649.35 299.24S681.2 299.88 711.8 299.88S743.07 296.37 774.24 296.37S806.14 304.89 836.69 304.89S868.64 294.61 899.14 294.61S931.41 300.73 961.58 300.73S993.39 298.3 1024.03 298.3S1056.17 299.58 1086.47 299.58S1118.59 291.61 1148.92 291.61S1180.87 301.62 1211.37 301.62S1242.88 293.47 1273.81 293.47S1305.85 300.27 1336.26 300.27S1367.6 308.67 1398.71 308.67S1430.95 299.33 1461.15 299.33S1492.64 297.28 1523.6 297.28S1555.62 307.66 1586.04 307.66S1617.92 294.75 1648.49 294.75L1636 426 L-100 426 Z" fill="#2295b0" stroke-width="0">
			<animate attributeName="d" dur="15s" repeatCount="indefinite" values="M-100 292.91C-68.37 292.27 -68.53 301.88 -37.55 301.88S-5.56 297.02 24.89 297.02S56.58 305.66 87.34 305.66S119.09 290.23 149.78 290.23S181.04 305.22 212.23 305.22S243.86 295.96 274.68 295.96S306.82 300.56 337.12 300.56S368.96 297.05 399.57 297.05S431.47 307.42 462.01 307.42S493.94 297.25 524.46 297.25S555.91 299.11 586.91 299.11S618.72 299.24 649.35 299.24S681.2 299.88 711.8 299.88S743.07 296.37 774.24 296.37S806.14 304.89 836.69 304.89S868.64 294.61 899.14 294.61S931.41 300.73 961.58 300.73S993.39 298.3 1024.03 298.3S1056.17 299.58 1086.47 299.58S1118.59 291.61 1148.92 291.61S1180.87 301.62 1211.37 301.62S1242.88 293.47 1273.81 293.47S1305.85 300.27 1336.26 300.27S1367.6 308.67 1398.71 308.67S1430.95 299.33 1461.15 299.33S1492.64 297.28 1523.6 297.28S1555.62 307.66 1586.04 307.66S1617.92 294.75 1648.49 294.75L1636 426 L-100 426 Z;M-100 299.94C-68.25 298.76 -68.7 299.96 -37.55 299.96S-6.29 298.7 24.89 298.7S56.43 304.17 87.34 304.17S119.19 290.05 149.78 290.05S181.63 302.99 212.23 302.99S243.96 296.87 274.68 296.87S306.3 299.59 337.12 299.59S368.76 290.15 399.57 290.15S431.02 301.16 462.01 301.16S493.46 298.87 524.46 298.87S556.65 301.47 586.91 301.47S618.61 299.05 649.35 299.05S681.26 302.07 711.8 302.07S743.11 295.54 774.24 295.54S805.49 297.93 836.69 297.93S868.6 306.23 899.14 306.23S930.47 299.59 961.58 299.59S993.74 298.46 1024.03 298.46S1055.38 303.04 1086.47 303.04S1118.29 294.49 1148.92 294.49S1181.02 299.72 1211.37 299.72S1242.94 302.06 1273.81 302.06S1305.95 307.37 1336.26 307.37S1367.61 297.2 1398.71 297.2S1430.85 304.52 1461.15 304.52S1492.82 298.43 1523.6 298.43S1555.79 300.16 1586.04 300.16S1617.86 298.96 1648.49 298.96L1636 426 L-100 426 Z;M-100 292.91C-68.37 292.27 -68.53 301.88 -37.55 301.88S-5.56 297.02 24.89 297.02S56.58 305.66 87.34 305.66S119.09 290.23 149.78 290.23S181.04 305.22 212.23 305.22S243.86 295.96 274.68 295.96S306.82 300.56 337.12 300.56S368.96 297.05 399.57 297.05S431.47 307.42 462.01 307.42S493.94 297.25 524.46 297.25S555.91 299.11 586.91 299.11S618.72 299.24 649.35 299.24S681.2 299.88 711.8 299.88S743.07 296.37 774.24 296.37S806.14 304.89 836.69 304.89S868.64 294.61 899.14 294.61S931.41 300.73 961.58 300.73S993.39 298.3 1024.03 298.3S1056.17 299.58 1086.47 299.58S1118.59 291.61 1148.92 291.61S1180.87 301.62 1211.37 301.62S1242.88 293.47 1273.81 293.47S1305.85 300.27 1336.26 300.27S1367.6 308.67 1398.71 308.67S1430.95 299.33 1461.15 299.33S1492.64 297.28 1523.6 297.28S1555.62 307.66 1586.04 307.66S1617.92 294.75 1648.49 294.75L1636 426 L-100 426 Z"></animate>
			<animateTransform attributeName="transform" type="translate" dur="15s" begin="-6s" repeatCount="indefinite" values="0;10;0" calcMode="spline" keySplines="0.3 0 0.7 1;0.3 0 0.7 1"></animateTransform>
		</path>
		<path d="M-100 312.34C-67.07 314.06 -66.86 313.04 -35.7 313.04S-3.21 301.97 28.59 301.97S61.33 319.89 92.89 319.89S125.89 304.56 157.19 304.56S190.27 313.41 221.48 313.41S253.96 309.12 285.78 309.12S318.72 314.81 350.07 314.81S383.07 305.64 414.37 305.64S446.61 320.42 478.67 320.42S511.63 309.37 542.96 309.37S575.44 312.45 607.26 312.45S639.66 302.8 671.56 302.8S704.31 315.74 735.85 315.74S768.72 320.79 800.15 320.79S832.44 320.51 864.44 320.51S896.63 308.39 928.74 308.39S961.85 312.48 993.04 312.48S1025.56 304.45 1057.33 304.45S1090.13 300.47 1121.63 300.47S1154.65 301.61 1185.93 301.61S1218.57 313.7 1250.22 313.7S1282.65 304.65 1314.52 304.65S1346.75 315.09 1378.81 315.09S1411.41 300.37 1443.11 300.37S1476.24 319.47 1507.41 319.47S1539.92 309.7 1571.7 309.7S1604.86 318.99 1636 318.99S1668.58 303.74 1700.3 303.74L1636 426 L-100 426 Z" fill="#2c7c99" stroke-width="0">
			<animate attributeName="d" dur="12.5s" repeatCount="indefinite" values="M-100 312.34C-67.07 314.06 -66.86 313.04 -35.7 313.04S-3.21 301.97 28.59 301.97S61.33 319.89 92.89 319.89S125.89 304.56 157.19 304.56S190.27 313.41 221.48 313.41S253.96 309.12 285.78 309.12S318.72 314.81 350.07 314.81S383.07 305.64 414.37 305.64S446.61 320.42 478.67 320.42S511.63 309.37 542.96 309.37S575.44 312.45 607.26 312.45S639.66 302.8 671.56 302.8S704.31 315.74 735.85 315.74S768.72 320.79 800.15 320.79S832.44 320.51 864.44 320.51S896.63 308.39 928.74 308.39S961.85 312.48 993.04 312.48S1025.56 304.45 1057.33 304.45S1090.13 300.47 1121.63 300.47S1154.65 301.61 1185.93 301.61S1218.57 313.7 1250.22 313.7S1282.65 304.65 1314.52 304.65S1346.75 315.09 1378.81 315.09S1411.41 300.37 1443.11 300.37S1476.24 319.47 1507.41 319.47S1539.92 309.7 1571.7 309.7S1604.86 318.99 1636 318.99S1668.58 303.74 1700.3 303.74L1636 426 L-100 426 Z;M-100 305.24C-67.34 308.72 -67.4 318.46 -35.7 318.46S-3.32 306.58 28.59 306.58S61.35 311.35 92.89 311.35S125.44 306.97 157.19 306.97S189.97 318.4 221.48 318.4S254.03 301.14 285.78 301.14S318.85 314.17 350.07 314.17S382.27 300.69 414.37 300.69S446.96 316.91 478.67 316.91S511.37 302.31 542.96 302.31S576 316.62 607.26 316.62S639.68 310.7 671.56 310.7S704.74 321.5 735.85 321.5S768.99 303.9 800.15 303.9S832.83 315.36 864.44 315.36S897.38 318.19 928.74 318.19S961.88 319.78 993.04 319.78S1026.02 305.42 1057.33 305.42S1089.93 317.02 1121.63 317.02S1153.86 303.36 1185.93 303.36S1218.44 313.96 1250.22 313.96S1283.3 318.21 1314.52 318.21S1347.42 320.57 1378.81 320.57S1411.16 306.1 1443.11 306.1S1475.42 318.3 1507.41 318.3S1540.54 304.68 1571.7 304.68S1604.67 308.64 1636 308.64S1668.86 303.26 1700.3 303.26L1636 426 L-100 426 Z;M-100 312.34C-67.07 314.06 -66.86 313.04 -35.7 313.04S-3.21 301.97 28.59 301.97S61.33 319.89 92.89 319.89S125.89 304.56 157.19 304.56S190.27 313.41 221.48 313.41S253.96 309.12 285.78 309.12S318.72 314.81 350.07 314.81S383.07 305.64 414.37 305.64S446.61 320.42 478.67 320.42S511.63 309.37 542.96 309.37S575.44 312.45 607.26 312.45S639.66 302.8 671.56 302.8S704.31 315.74 735.85 315.74S768.72 320.79 800.15 320.79S832.44 320.51 864.44 320.51S896.63 308.39 928.74 308.39S961.85 312.48 993.04 312.48S1025.56 304.45 1057.33 304.45S1090.13 300.47 1121.63 300.47S1154.65 301.61 1185.93 301.61S1218.57 313.7 1250.22 313.7S1282.65 304.65 1314.52 304.65S1346.75 315.09 1378.81 315.09S1411.41 300.37 1443.11 300.37S1476.24 319.47 1507.41 319.47S1539.92 309.7 1571.7 309.7S1604.86 318.99 1636 318.99S1668.58 303.74 1700.3 303.74L1636 426 L-100 426 Z"></animate>
			<animateTransform attributeName="transform" type="translate" dur="12.5s" begin="-6.25s" repeatCount="indefinite" values="0;10;0" calcMode="spline" keySplines="0.3 0 0.7 1;0.3 0 0.7 1"></animateTransform>
		</path>
		<path d="M-100 319.15C-66.01 321.48 -66.65 329.08 -33.74 329.08S-0.06 311.03 32.52 311.03S66.16 327.23 98.78 327.23S132.45 317.52 165.04 317.52S198.76 333.95 231.3 333.95S265.14 317.37 297.56 317.37S330.79 333.63 363.82 333.63S397.81 312.38 430.08 312.38S464.22 317.55 496.34 317.55S530.26 316.28 562.6 316.28S595.99 326.84 628.85 326.84S662.35 313.39 695.11 313.39S728.79 327.48 761.37 327.48S795.11 317.53 827.63 317.53S861.22 331.39 893.89 331.39S927.36 324.89 960.15 324.89S994.01 332.12 1026.41 332.12S1060.42 315.69 1092.67 315.69S1126.33 332.48 1158.93 332.48S1192.3 320.2 1225.19 320.2S1258.97 329.03 1291.45 329.03S1324.59 317.96 1357.71 317.96S1391.69 331.41 1423.97 331.41S1457.95 316.92 1490.23 316.92S1523.39 324.15 1556.49 324.15S1589.64 325.66 1622.75 325.66S1656.01 330.4 1689.01 330.4L1636 426 L-100 426 Z" fill="#30647f" stroke-width="0">
			<animate attributeName="d" dur="10s" repeatCount="indefinite" values="M-100 319.15C-66.01 321.48 -66.65 329.08 -33.74 329.08S-0.06 311.03 32.52 311.03S66.16 327.23 98.78 327.23S132.45 317.52 165.04 317.52S198.76 333.95 231.3 333.95S265.14 317.37 297.56 317.37S330.79 333.63 363.82 333.63S397.81 312.38 430.08 312.38S464.22 317.55 496.34 317.55S530.26 316.28 562.6 316.28S595.99 326.84 628.85 326.84S662.35 313.39 695.11 313.39S728.79 327.48 761.37 327.48S795.11 317.53 827.63 317.53S861.22 331.39 893.89 331.39S927.36 324.89 960.15 324.89S994.01 332.12 1026.41 332.12S1060.42 315.69 1092.67 315.69S1126.33 332.48 1158.93 332.48S1192.3 320.2 1225.19 320.2S1258.97 329.03 1291.45 329.03S1324.59 317.96 1357.71 317.96S1391.69 331.41 1423.97 331.41S1457.95 316.92 1490.23 316.92S1523.39 324.15 1556.49 324.15S1589.64 325.66 1622.75 325.66S1656.01 330.4 1689.01 330.4L1636 426 L-100 426 Z;M-100 319.08C-66.61 319.03 -65.91 325.67 -33.74 325.67S0.15 316.79 32.52 316.79S66.45 323.96 98.78 323.96S132.4 311.86 165.04 311.86S199 333.84 231.3 333.84S265.1 320.04 297.56 320.04S331.42 311.36 363.82 311.36S397.19 317.12 430.08 317.12S464.05 325.05 496.34 325.05S529.6 318.35 562.6 318.35S595.97 326.27 628.85 326.27S662.95 313.34 695.11 313.34S728.37 333.98 761.37 333.98S794.65 313.28 827.63 313.28S861.61 327.14 893.89 327.14S927.25 319.94 960.15 319.94S994.11 320.36 1026.41 320.36S1060.23 318.58 1092.67 318.58S1126.8 329.38 1158.93 329.38S1192.18 315.74 1225.19 315.74S1259 314.55 1291.45 314.55S1325.4 311.02 1357.71 311.02S1391.23 324.22 1423.97 324.22S1457.22 320.08 1490.23 320.08S1524.4 332.87 1556.49 332.87S1590.19 328.43 1622.75 328.43S1656.2 330.94 1689.01 330.94L1636 426 L-100 426 Z;M-100 319.15C-66.01 321.48 -66.65 329.08 -33.74 329.08S-0.06 311.03 32.52 311.03S66.16 327.23 98.78 327.23S132.45 317.52 165.04 317.52S198.76 333.95 231.3 333.95S265.14 317.37 297.56 317.37S330.79 333.63 363.82 333.63S397.81 312.38 430.08 312.38S464.22 317.55 496.34 317.55S530.26 316.28 562.6 316.28S595.99 326.84 628.85 326.84S662.35 313.39 695.11 313.39S728.79 327.48 761.37 327.48S795.11 317.53 827.63 317.53S861.22 331.39 893.89 331.39S927.36 324.89 960.15 324.89S994.01 332.12 1026.41 332.12S1060.42 315.69 1092.67 315.69S1126.33 332.48 1158.93 332.48S1192.3 320.2 1225.19 320.2S1258.97 329.03 1291.45 329.03S1324.59 317.96 1357.71 317.96S1391.69 331.41 1423.97 331.41S1457.95 316.92 1490.23 316.92S1523.39 324.15 1556.49 324.15S1589.64 325.66 1622.75 325.66S1656.01 330.4 1689.01 330.4L1636 426 L-100 426 Z"></animate>
			<animateTransform attributeName="transform" type="translate" dur="10s" begin="-6s" repeatCount="indefinite" values="0;10;0" calcMode="spline" keySplines="0.3 0 0.7 1;0.3 0 0.7 1"></animateTransform>
		</path>
		<path d="M-100 342.22C-65.12 337.57 -65.6 343.98 -31.65 343.98S2.99 331.24 36.69 331.24S71.84 337.71 105.04 337.71S139.43 328.05 173.39 328.05S208.23 342.29 241.73 342.29S275.95 330.02 310.08 330.02S344.72 339.6 378.43 339.6S412.65 343.27 446.77 343.27S481.56 347.13 515.12 347.13S549.55 328.16 583.46 328.16S618.52 343.7 651.81 343.7S686.74 328.74 720.16 328.74S754.68 345.86 788.5 345.86S822.68 331.39 856.85 331.39S891.25 339.69 925.2 339.69S960.06 345.67 993.54 345.67S1028.72 346.31 1061.89 346.31S1096.18 323.44 1130.24 323.44S1164.78 345.04 1198.58 345.04S1233.5 331.45 1266.93 331.45S1301.76 341.63 1335.28 341.63S1370.18 324.48 1403.62 324.48S1438.53 343.66 1471.97 343.66S1507.15 329.56 1540.31 329.56S1575.42 336.94 1608.66 336.94S1643.87 325.74 1677.01 325.74L1636 426 L-100 426 Z" fill="#2e4d65" stroke-width="0">
			<animate attributeName="d" dur="7.5s" repeatCount="indefinite" values="M-100 342.22C-65.12 337.57 -65.6 343.98 -31.65 343.98S2.99 331.24 36.69 331.24S71.84 337.71 105.04 337.71S139.43 328.05 173.39 328.05S208.23 342.29 241.73 342.29S275.95 330.02 310.08 330.02S344.72 339.6 378.43 339.6S412.65 343.27 446.77 343.27S481.56 347.13 515.12 347.13S549.55 328.16 583.46 328.16S618.52 343.7 651.81 343.7S686.74 328.74 720.16 328.74S754.68 345.86 788.5 345.86S822.68 331.39 856.85 331.39S891.25 339.69 925.2 339.69S960.06 345.67 993.54 345.67S1028.72 346.31 1061.89 346.31S1096.18 323.44 1130.24 323.44S1164.78 345.04 1198.58 345.04S1233.5 331.45 1266.93 331.45S1301.76 341.63 1335.28 341.63S1370.18 324.48 1403.62 324.48S1438.53 343.66 1471.97 343.66S1507.15 329.56 1540.31 329.56S1575.42 336.94 1608.66 336.94S1643.87 325.74 1677.01 325.74L1636 426 L-100 426 Z;M-100 323.51C-65.22 323.68 -64.77 342.9 -31.65 342.9S2.83 324.4 36.69 324.4S71.21 344.43 105.04 344.43S140.22 326.69 173.39 326.69S208.25 327.05 241.73 327.05S276.46 321.87 310.08 321.87S344.38 346.96 378.43 346.96S412.92 325.47 446.77 325.47S481.39 340.31 515.12 340.31S549.85 330.58 583.46 330.58S618.01 344.83 651.81 344.83S686.79 326.34 720.16 326.34S754.7 345.7 788.5 345.7S823.13 321.77 856.85 321.77S891.59 341.11 925.2 341.11S959.86 344.3 993.54 344.3S1028.19 345.22 1061.89 345.22S1096.92 328.25 1130.24 328.25S1165.34 339.94 1198.58 339.94S1233.53 325.37 1266.93 325.37S1302.12 338.43 1335.28 338.43S1369.66 330.35 1403.62 330.35S1438.51 339.66 1471.97 339.66S1506.44 324.46 1540.31 324.46S1575.43 342.89 1608.66 342.89S1643.69 324.87 1677.01 324.87L1636 426 L-100 426 Z;M-100 342.22C-65.12 337.57 -65.6 343.98 -31.65 343.98S2.99 331.24 36.69 331.24S71.84 337.71 105.04 337.71S139.43 328.05 173.39 328.05S208.23 342.29 241.73 342.29S275.95 330.02 310.08 330.02S344.72 339.6 378.43 339.6S412.65 343.27 446.77 343.27S481.56 347.13 515.12 347.13S549.55 328.16 583.46 328.16S618.52 343.7 651.81 343.7S686.74 328.74 720.16 328.74S754.68 345.86 788.5 345.86S822.68 331.39 856.85 331.39S891.25 339.69 925.2 339.69S960.06 345.67 993.54 345.67S1028.72 346.31 1061.89 346.31S1096.18 323.44 1130.24 323.44S1164.78 345.04 1198.58 345.04S1233.5 331.45 1266.93 331.45S1301.76 341.63 1335.28 341.63S1370.18 324.48 1403.62 324.48S1438.53 343.66 1471.97 343.66S1507.15 329.56 1540.31 329.56S1575.42 336.94 1608.66 336.94S1643.87 325.74 1677.01 325.74L1636 426 L-100 426 Z"></animate>
			<animateTransform attributeName="transform" type="translate" dur="7.5s" begin="-5.25s" repeatCount="indefinite" values="0;10;0" calcMode="spline" keySplines="0.3 0 0.7 1;0.3 0 0.7 1"></animateTransform>
		</path>
		<path d="M-100 334.92C-63.95 338.01 -63.84 356.6 -29.43 356.6S6.16 342.92 41.14 342.92S77.18 350.57 111.71 350.57S147.6 340.49 182.28 340.49S218.31 352.47 252.85 352.47S288.82 332.43 323.41 332.43S359.47 354.94 393.98 354.94S430.19 341.14 464.55 341.14S499.97 359.3 535.12 359.3S571.25 337.16 605.69 337.16S641.55 352.67 676.26 352.67S712.28 340.09 746.83 340.09S782.28 355.69 817.4 355.69S853.03 349.38 887.97 349.38S923.38 353.31 958.54 353.31S994.75 341.28 1029.11 341.28S1065.33 357.56 1099.67 357.56S1135.85 333.38 1170.24 333.38S1205.75 358.26 1240.81 358.26S1276.93 335.02 1311.38 335.02S1347.07 352.93 1381.95 352.93S1417.33 341.35 1452.52 341.35S1488.67 353.74 1523.09 353.74S1559.09 341.78 1593.66 341.78S1629.6 342.89 1664.23 342.89L1636 426 L-100 426 Z" fill="#28384a" stroke-width="0">
			<animate attributeName="d" dur="5s" repeatCount="indefinite" values="M-100 334.92C-63.95 338.01 -63.84 356.6 -29.43 356.6S6.16 342.92 41.14 342.92S77.18 350.57 111.71 350.57S147.6 340.49 182.28 340.49S218.31 352.47 252.85 352.47S288.82 332.43 323.41 332.43S359.47 354.94 393.98 354.94S430.19 341.14 464.55 341.14S499.97 359.3 535.12 359.3S571.25 337.16 605.69 337.16S641.55 352.67 676.26 352.67S712.28 340.09 746.83 340.09S782.28 355.69 817.4 355.69S853.03 349.38 887.97 349.38S923.38 353.31 958.54 353.31S994.75 341.28 1029.11 341.28S1065.33 357.56 1099.67 357.56S1135.85 333.38 1170.24 333.38S1205.75 358.26 1240.81 358.26S1276.93 335.02 1311.38 335.02S1347.07 352.93 1381.95 352.93S1417.33 341.35 1452.52 341.35S1488.67 353.74 1523.09 353.74S1559.09 341.78 1593.66 341.78S1629.6 342.89 1664.23 342.89L1636 426 L-100 426 Z;M-100 349.86C-63.76 351.6 -64.56 358.28 -29.43 358.28S6.75 342.9 41.14 342.9S76.54 353.25 111.71 353.25S147.6 342.22 182.28 342.22S218.21 359.06 252.85 359.06S288.68 333.98 323.41 333.98S358.75 356.63 393.98 356.63S429.78 337.8 464.55 337.8S499.9 350.07 535.12 350.07S570.91 335.43 605.69 335.43S641.49 350.06 676.26 350.06S711.69 351.65 746.83 351.65S782.34 349.48 817.4 349.48S852.99 353.32 887.97 353.32S924.05 354.53 958.54 354.53S994.05 332.63 1029.11 332.63S1065.03 354.1 1099.67 354.1S1135.31 342.59 1170.24 342.59S1205.64 334.43 1240.81 334.43S1276.36 333.7 1311.38 333.7S1346.87 353.97 1381.95 353.97S1417.89 332.45 1452.52 332.45S1487.98 355.57 1523.09 355.57S1559.39 336.08 1593.66 336.08S1629.71 349.37 1664.23 349.37L1636 426 L-100 426 Z;M-100 334.92C-63.95 338.01 -63.84 356.6 -29.43 356.6S6.16 342.92 41.14 342.92S77.18 350.57 111.71 350.57S147.6 340.49 182.28 340.49S218.31 352.47 252.85 352.47S288.82 332.43 323.41 332.43S359.47 354.94 393.98 354.94S430.19 341.14 464.55 341.14S499.97 359.3 535.12 359.3S571.25 337.16 605.69 337.16S641.55 352.67 676.26 352.67S712.28 340.09 746.83 340.09S782.28 355.69 817.4 355.69S853.03 349.38 887.97 349.38S923.38 353.31 958.54 353.31S994.75 341.28 1029.11 341.28S1065.33 357.56 1099.67 357.56S1135.85 333.38 1170.24 333.38S1205.75 358.26 1240.81 358.26S1276.93 335.02 1311.38 335.02S1347.07 352.93 1381.95 352.93S1417.33 341.35 1452.52 341.35S1488.67 353.74 1523.09 353.74S1559.09 341.78 1593.66 341.78S1629.6 342.89 1664.23 342.89L1636 426 L-100 426 Z"></animate>
			<animateTransform attributeName="transform" type="translate" dur="5s" begin="-4s" repeatCount="indefinite" values="0;10;0" calcMode="spline" keySplines="0.3 0 0.7 1;0.3 0 0.7 1"></animateTransform>
		</path>
		<path d="M-100 348.96C-63.29 353.23 -62.61 372.15 -27.06 372.15S10.03 351.24 45.88 351.24S82.94 371.81 118.82 371.81S156.22 350.76 191.76 350.76S228.29 364.22 264.71 364.22S301.5 351.92 337.65 351.92S374.97 371.74 410.59 371.74S447.25 344.7 483.53 344.7S521.01 371.54 556.47 371.54S593.6 350.42 629.41 350.42S666.04 364.03 702.35 364.03S738.85 346.06 775.29 346.06S812.28 363.2 848.24 363.2S885.4 343.46 921.18 343.46S958.44 368.63 994.12 368.63S1031.03 353.06 1067.06 353.06S1104.33 371.88 1140 371.88S1177.07 346.93 1212.94 346.93S1249.75 370.79 1285.88 370.79S1323.14 344.69 1358.82 344.69S1396.26 362.93 1431.76 362.93S1468.67 344.34 1504.71 344.34S1541.81 372.72 1577.65 372.72S1614.92 351.53 1650.59 351.53L1636 426 L-100 426 Z" fill="#1f2530" stroke-width="0">
			<animate attributeName="d" dur="2.5s" repeatCount="indefinite" values="M-100 348.96C-63.29 353.23 -62.61 372.15 -27.06 372.15S10.03 351.24 45.88 351.24S82.94 371.81 118.82 371.81S156.22 350.76 191.76 350.76S228.29 364.22 264.71 364.22S301.5 351.92 337.65 351.92S374.97 371.74 410.59 371.74S447.25 344.7 483.53 344.7S521.01 371.54 556.47 371.54S593.6 350.42 629.41 350.42S666.04 364.03 702.35 364.03S738.85 346.06 775.29 346.06S812.28 363.2 848.24 363.2S885.4 343.46 921.18 343.46S958.44 368.63 994.12 368.63S1031.03 353.06 1067.06 353.06S1104.33 371.88 1140 371.88S1177.07 346.93 1212.94 346.93S1249.75 370.79 1285.88 370.79S1323.14 344.69 1358.82 344.69S1396.26 362.93 1431.76 362.93S1468.67 344.34 1504.71 344.34S1541.81 372.72 1577.65 372.72S1614.92 351.53 1650.59 351.53L1636 426 L-100 426 Z;M-100 342.98C-63.41 349.64 -62.53 372.59 -27.06 372.59S10.04 349.97 45.88 349.97S82.49 363.16 118.82 363.16S156.08 347.97 191.76 347.97S228.8 367.79 264.71 367.79S301.99 349.36 337.65 349.36S374.31 372.15 410.59 372.15S447.57 350.65 483.53 350.65S520.04 372.33 556.47 372.33S593.48 349.55 629.41 349.55S666.38 362.71 702.35 362.71S739.23 350 775.29 350S811.82 372.48 848.24 372.48S885.01 351.16 921.18 351.16S958.22 372.02 994.12 372.02S1031.61 364.25 1067.06 364.25S1104.01 372.62 1140 372.62S1177.16 352.04 1212.94 352.04S1250.24 350.34 1285.88 350.34S1323.41 352.47 1358.82 352.47S1395.97 371.79 1431.76 371.79S1469.02 347.83 1504.71 347.83S1541.72 343.9 1577.65 343.9S1615.09 352.95 1650.59 352.95L1636 426 L-100 426 Z;M-100 348.96C-63.29 353.23 -62.61 372.15 -27.06 372.15S10.03 351.24 45.88 351.24S82.94 371.81 118.82 371.81S156.22 350.76 191.76 350.76S228.29 364.22 264.71 364.22S301.5 351.92 337.65 351.92S374.97 371.74 410.59 371.74S447.25 344.7 483.53 344.7S521.01 371.54 556.47 371.54S593.6 350.42 629.41 350.42S666.04 364.03 702.35 364.03S738.85 346.06 775.29 346.06S812.28 363.2 848.24 363.2S885.4 343.46 921.18 343.46S958.44 368.63 994.12 368.63S1031.03 353.06 1067.06 353.06S1104.33 371.88 1140 371.88S1177.07 346.93 1212.94 346.93S1249.75 370.79 1285.88 370.79S1323.14 344.69 1358.82 344.69S1396.26 362.93 1431.76 362.93S1468.67 344.34 1504.71 344.34S1541.81 372.72 1577.65 372.72S1614.92 351.53 1650.59 351.53L1636 426 L-100 426 Z"></animate>
			<animateTransform attributeName="transform" type="translate" dur="2.5s" begin="-2.25s" repeatCount="indefinite" values="0;10;0" calcMode="spline" keySplines="0.3 0 0.7 1;0.3 0 0.7 1"></animateTransform>
		</path>
	</g>
</svg>