<svg width="100%" height="100%" viewBox="0 0 1920 1080" preserveAspectRatio="xMidYMid slice"
  xmlns="http://www.w3.org/2000/svg">
 <defs>
  <linearGradient id="waveGradient" x1="0%" y1="0%" x2="100%" y2="100%">
    <stop offset="0%" stop-color="#0a4d4d">
      <animate attributeName="stop-color"
        values="#0a4d4d;#056666;#064d35;#0b3d4d;#0a4d4d"
        dur="40s"
        repeatCount="indefinite" />
    </stop>
    <stop offset="100%" stop-color="#056666">
      <animate attributeName="stop-color"
        values="#056666;#064d35;#0b3d4d;#0a4d4d;#056666"
        dur="40s"
        repeatCount="indefinite" />
    </stop>
  </linearGradient>
</defs>

  <!-- Background layer -->
  <rect width="100%" height="100%" fill="#0a1010" />

  <!-- Animated gradient shapes -->
  <path d="M0,1080 Q400,900 800,1080 V0 Q1200,200 1600,0 V1080 Q2000,900 1920,1080"
    fill="url(#waveGradient)" opacity="0.7">
    <animate attributeName="d"
      values="M0,1080 Q400,900 800,1080 V0 Q1200,200 1600,0 V1080 Q2000,900 1920,1080;
              M0,1080 Q500,950 900,1080 V0 Q1300,150 1700,0 V1080 Q2100,850 1920,1080;
              M0,1080 Q400,900 800,1080 V0 Q1200,200 1600,0 V1080 Q2000,900 1920,1080"
      dur="10s" repeatCount="indefinite" />
  </path>
  <path d="M0,1080 Q300,850 700,1080 V0 Q1100,250 1500,0 V1080 Q1900,950 1920,1080"
    fill="url(#waveGradient)" opacity="0.6">
    <animate attributeName="d"
      values="M0,1080 Q300,850 700,1080 V0 Q1100,250 1500,0 V1080 Q1900,950 1920,1080;
              M0,1080 Q400,900 800,1080 V0 Q1200,200 1600,0 V1080 Q2000,900 1920,1080;
              M0,1080 Q300,850 700,1080 V0 Q1100,250 1500,0 V1080 Q1900,950 1920,1080"
      dur="12s" repeatCount="indefinite" begin="2s" />
  </path>
  <path d="M0,1080 Q200,800 600,1080 V0 Q1000,300 1400,0 V1080 Q1800,1000 1920,1080"
    fill="url(#waveGradient)" opacity="0.5">
    <animate attributeName="d"
      values="M0,1080 Q200,800 600,1080 V0 Q1000,300 1400,0 V1080 Q1800,1000 1920,1080;
              M0,1080 Q300,850 700,1080 V0 Q1100,250 1500,0 V1080 Q1900,950 1920,1080;
              M0,1080 Q200,800 600,1080 V0 Q1000,300 1400,0 V1080 Q1800,1000 1920,1080"
      dur="14s" repeatCount="indefinite" begin="4s" />
  </path>

  <!-- Subtle wave lines -->
  <path d="M0,500 Q200,480 400,500 T800,480 T1200,500 T1600,480 T1920,500" stroke="#0a2020"
    stroke-width="1" stroke-opacity="0.3" fill="none">
    <animate attributeName="d"
      values="M0,500 Q200,480 400,500 T800,480 T1200,500 T1600,480 T1920,500;
              M0,520 Q250,500 450,520 T850,500 T1250,520 T1650,500 T1920,520;
              M0,500 Q200,480 400,500 T800,480 T1200,500 T1600,480 T1920,500"
      dur="6s" repeatCount="indefinite" />
  </path>
  <path d="M0,600 Q150,580 350,600 T700,580 T1100,600 T1500,580 T1920,600" stroke="#0a2020"
    stroke-width="1" stroke-opacity="0.3" fill="none">
    <animate attributeName="d"
      values="M0,600 Q150,580 350,600 T700,580 T1100,600 T1500,580 T1920,600;
              M0,620 Q200,600 400,620 T800,600 T1200,620 T1600,600 T1920,620;
              M0,600 Q150,580 350,600 T700,580 T1100,600 T1500,580 T1920,600"
      dur="7s" repeatCount="indefinite" begin="1s" />
  </path>
</svg>
